<?xml version="1.0" standalone="no"?>
<!DOCTYPE svg PUBLIC "-//W3C//DTD SVG 20010904//EN"
 "http://www.w3.org/TR/2001/REC-SVG-20010904/DTD/svg10.dtd">
<svg version="1.0" xmlns="http://www.w3.org/2000/svg"
 width="512.000000pt" height="512.000000pt" viewBox="0 0 512.000000 512.000000"
 preserveAspectRatio="xMidYMid meet">
<metadata>
Created by potrace 1.14, written by Peter Selinger 2001-2017
</metadata>
<g transform="translate(0.000000,512.000000) scale(0.100000,-0.100000)"
fill="#000000" stroke="none">
<path d="M0 2560 l0 -2560 2560 0 2560 0 0 2560 0 2560 -2560 0 -2560 0 0
-2560z m1670 824 c234 -53 421 -242 492 -501 30 -108 32 -373 4 -478 -71 -268
-261 -460 -506 -511 -96 -20 -254 -20 -350 0 -258 54 -457 263 -515 541 -21
103 -22 304 -1 402 56 262 230 464 460 535 120 36 283 41 416 12z m1739 -293
c144 -165 265 -302 270 -305 4 -3 127 132 272 299 l263 305 68 0 68 0 0 -750
0 -750 -105 0 -105 0 -1 568 0 567 -32 -39 c-18 -21 -119 -140 -226 -265 -106
-124 -195 -227 -196 -229 -2 -3 -400 460 -432 503 l-22 30 -1 -567 0 -568
-110 0 -110 0 0 750 0 750 69 0 70 0 260 -299z m-729 -561 l0 -820 -100 0
-100 0 0 820 0 820 100 0 100 0 0 -820z"/>
<path d="M1326 3201 c-149 -49 -263 -181 -312 -362 -25 -89 -25 -309 0 -398
67 -246 233 -381 465 -381 142 1 240 35 320 113 121 117 172 255 172 465 -1
263 -97 449 -278 539 -72 35 -80 37 -191 40 -95 3 -128 -1 -176 -16z"/>
</g>
</svg>
